<svg xmlns="http://www.w3.org/2000/svg" xmlns:xlink="http://www.w3.org/1999/xlink" width="500" zoomAndPan="magnify" viewBox="0 0 375 374.999991" height="500" preserveAspectRatio="xMidYMid meet" version="1.0"><defs><g/><clipPath id="id1"><path d="M 54 225.371094 L 188.765625 225.371094 L 188.765625 241.871094 L 54 241.871094 Z M 54 225.371094 " clip-rule="nonzero"/></clipPath><clipPath id="id2"><path d="M 54 241.917969 L 188.765625 241.917969 L 188.765625 258.417969 L 54 258.417969 Z M 54 241.917969 " clip-rule="nonzero"/></clipPath><clipPath id="id3"><path d="M 54 259.578125 L 188.765625 259.578125 L 188.765625 276.078125 L 54 276.078125 Z M 54 259.578125 " clip-rule="nonzero"/></clipPath><clipPath id="id4"><path d="M 54 275.175781 L 188.765625 275.175781 L 188.765625 291.675781 L 54 291.675781 Z M 54 275.175781 " clip-rule="nonzero"/></clipPath><clipPath id="id5"><path d="M 187.121094 259.578125 L 322 259.578125 L 322 276.078125 L 187.121094 276.078125 Z M 187.121094 259.578125 " clip-rule="nonzero"/></clipPath><clipPath id="id6"><path d="M 187.121094 275.175781 L 322 275.175781 L 322 291.675781 L 187.121094 291.675781 Z M 187.121094 275.175781 " clip-rule="nonzero"/></clipPath></defs><g fill="#000000" fill-opacity="1"><g transform="translate(49.568406, 217.569771)"><g><path d="M 4.46875 -61.828125 C 4.46875 -63.148438 5.015625 -63.8125 6.109375 -63.8125 L 52.546875 -63.8125 C 53.578125 -63.8125 54.09375 -63.207031 54.09375 -62 L 54.015625 -52.03125 C 54.015625 -50.476562 53.265625 -49.703125 51.765625 -49.703125 L 25.96875 -49.703125 C 24.65625 -49.703125 24 -49.160156 24 -48.078125 L 24 -40.765625 C 24 -40.191406 24.140625 -39.742188 24.421875 -39.421875 C 24.710938 -39.109375 25.085938 -38.953125 25.546875 -38.953125 L 41.015625 -38.953125 C 42.222656 -38.953125 42.828125 -38.378906 42.828125 -37.234375 L 42.828125 -26.578125 C 42.828125 -25.597656 42.3125 -25.109375 41.28125 -25.109375 L 25.375 -25.109375 C 24.96875 -25.109375 24.632812 -24.992188 24.375 -24.765625 C 24.125 -24.535156 24 -24.25 24 -23.90625 L 24 -15.3125 C 24 -14.851562 24.066406 -14.535156 24.203125 -14.359375 C 24.347656 -14.191406 24.625 -14.109375 25.03125 -14.109375 L 52.96875 -14.109375 C 54.238281 -14.109375 54.875 -13.5625 54.875 -12.46875 L 54.875 -1.890625 C 54.875 -1.316406 54.703125 -0.859375 54.359375 -0.515625 C 54.015625 -0.171875 53.492188 0 52.796875 0 L 6.796875 0 C 5.929688 0 5.328125 -0.171875 4.984375 -0.515625 C 4.640625 -0.859375 4.46875 -1.40625 4.46875 -2.15625 Z M 4.46875 -61.828125 "/></g></g></g><g fill="#000000" fill-opacity="1"><g transform="translate(107.269135, 217.569771)"><g><path d="M 6.703125 0 C 6.015625 0 5.46875 -0.210938 5.0625 -0.640625 C 4.664062 -1.078125 4.46875 -1.664062 4.46875 -2.40625 L 4.46875 -61.828125 C 4.46875 -62.515625 4.609375 -63.015625 4.890625 -63.328125 C 5.179688 -63.648438 5.644531 -63.8125 6.28125 -63.8125 L 30.359375 -63.8125 C 31.097656 -63.8125 31.625 -63.707031 31.9375 -63.5 C 32.257812 -63.300781 32.535156 -62.890625 32.765625 -62.265625 L 41.703125 -34.921875 C 41.878906 -34.460938 42.082031 -34.234375 42.3125 -34.234375 C 42.476562 -34.234375 42.648438 -34.460938 42.828125 -34.921875 L 50.828125 -61.3125 C 51.285156 -62.976562 52.054688 -63.8125 53.140625 -63.8125 L 78 -63.8125 C 79.03125 -63.8125 79.546875 -63.207031 79.546875 -62 L 79.546875 -2.5 C 79.546875 -1.582031 79.332031 -0.9375 78.90625 -0.5625 C 78.476562 -0.1875 77.773438 0 76.796875 0 L 62.265625 0 C 61.398438 0 60.8125 -0.171875 60.5 -0.515625 C 60.1875 -0.859375 60.03125 -1.40625 60.03125 -2.15625 L 60.03125 -40.765625 C 60.03125 -41.222656 59.914062 -41.453125 59.6875 -41.453125 C 59.394531 -41.453125 59.164062 -41.191406 59 -40.671875 L 46.609375 -1.546875 C 46.210938 -0.515625 45.523438 0 44.546875 0 L 35.515625 0 C 34.484375 0 33.796875 -0.515625 33.453125 -1.546875 L 21.0625 -39.984375 C 20.894531 -40.554688 20.695312 -40.84375 20.46875 -40.84375 C 20.175781 -40.84375 20.03125 -40.53125 20.03125 -39.90625 L 20.03125 -1.890625 C 20.03125 -1.148438 19.914062 -0.648438 19.6875 -0.390625 C 19.457031 -0.128906 18.941406 0 18.140625 0 Z M 6.703125 0 "/></g></g></g><g fill="#000000" fill-opacity="1"><g transform="translate(191.283469, 217.569771)"><g><path d="M 3.703125 0 C 3.242188 0 2.867188 -0.15625 2.578125 -0.46875 C 2.296875 -0.789062 2.15625 -1.238281 2.15625 -1.8125 C 2.15625 -2.207031 2.238281 -2.664062 2.40625 -3.1875 L 23.21875 -61.828125 C 23.507812 -62.578125 23.828125 -63.09375 24.171875 -63.375 C 24.515625 -63.664062 25.054688 -63.8125 25.796875 -63.8125 L 42.734375 -63.8125 C 43.429688 -63.8125 44.050781 -63.59375 44.59375 -63.15625 C 45.132812 -62.726562 45.550781 -62.171875 45.84375 -61.484375 L 66.484375 -2.921875 C 66.597656 -2.460938 66.65625 -2.117188 66.65625 -1.890625 C 66.65625 -1.378906 66.539062 -0.9375 66.3125 -0.5625 C 66.082031 -0.1875 65.738281 0 65.28125 0 L 48.421875 0 C 47.441406 0 46.8125 -0.488281 46.53125 -1.46875 L 43.171875 -11.359375 C 42.992188 -11.753906 42.832031 -12.023438 42.6875 -12.171875 C 42.550781 -12.316406 42.28125 -12.390625 41.875 -12.390625 L 23.65625 -12.390625 C 22.96875 -12.390625 22.535156 -12.070312 22.359375 -11.4375 L 18.828125 -1.296875 C 18.484375 -0.429688 17.796875 0 16.765625 0 Z M 37.578125 -27 C 38.210938 -27 38.53125 -27.285156 38.53125 -27.859375 C 38.53125 -27.972656 38.472656 -28.257812 38.359375 -28.71875 L 33.203125 -43.4375 C 33.085938 -43.71875 32.914062 -43.859375 32.6875 -43.859375 C 32.457031 -43.859375 32.28125 -43.71875 32.15625 -43.4375 L 26.921875 -28.8125 C 26.804688 -28.582031 26.75 -28.296875 26.75 -27.953125 C 26.75 -27.316406 27.09375 -27 27.78125 -27 Z M 37.578125 -27 "/></g></g></g><g fill="#000000" fill-opacity="1"><g transform="translate(259.991183, 217.569771)"><g><path d="M 32.6875 0.859375 C 26.71875 0.859375 21.453125 -0.515625 16.890625 -3.265625 C 12.335938 -6.015625 8.8125 -9.84375 6.3125 -14.75 C 3.820312 -19.65625 2.578125 -25.285156 2.578125 -31.640625 C 2.578125 -38.179688 3.894531 -43.945312 6.53125 -48.9375 C 9.164062 -53.925781 12.847656 -57.796875 17.578125 -60.546875 C 22.316406 -63.296875 27.722656 -64.671875 33.796875 -64.671875 C 38.722656 -64.671875 43.117188 -63.765625 46.984375 -61.953125 C 50.859375 -60.148438 53.984375 -57.816406 56.359375 -54.953125 C 58.742188 -52.085938 60.3125 -49.050781 61.0625 -45.84375 C 61.226562 -45.15625 61.3125 -44.609375 61.3125 -44.203125 C 61.3125 -43.691406 61.195312 -43.347656 60.96875 -43.171875 C 60.738281 -42.992188 60.367188 -42.878906 59.859375 -42.828125 L 45.15625 -40.59375 C 44.519531 -40.59375 44.113281 -40.707031 43.9375 -40.9375 C 43.769531 -41.164062 43.601562 -41.625 43.4375 -42.3125 C 42.96875 -44.945312 41.890625 -47.109375 40.203125 -48.796875 C 38.515625 -50.492188 36.238281 -51.34375 33.375 -51.34375 C 29.988281 -51.34375 27.421875 -49.894531 25.671875 -47 C 23.921875 -44.101562 23.046875 -39.15625 23.046875 -32.15625 C 23.046875 -24.820312 23.988281 -19.722656 25.875 -16.859375 C 27.769531 -13.992188 30.5 -12.5625 34.0625 -12.5625 C 38.695312 -12.5625 41.789062 -14.566406 43.34375 -18.578125 L 43.609375 -19.34375 L 43.78125 -20.03125 C 43.78125 -20.550781 43.460938 -20.8125 42.828125 -20.8125 L 34.75 -20.8125 C 34.113281 -20.8125 33.664062 -20.953125 33.40625 -21.234375 C 33.15625 -21.523438 33.03125 -22.015625 33.03125 -22.703125 L 33.03125 -30.953125 C 33.03125 -31.929688 33.628906 -32.421875 34.828125 -32.421875 L 58.90625 -32.25 C 59.9375 -32.25 60.738281 -32.003906 61.3125 -31.515625 C 61.882812 -31.023438 62.171875 -30.378906 62.171875 -29.578125 L 62.171875 -1.46875 C 62.171875 -1.0625 62.023438 -0.710938 61.734375 -0.421875 C 61.453125 -0.140625 61.113281 0 60.71875 0 L 57.453125 0 C 56.421875 0 55.503906 -0.546875 54.703125 -1.640625 L 51.25 -6.625 C 51.195312 -6.789062 51.082031 -6.875 50.90625 -6.875 C 50.789062 -6.875 50.59375 -6.734375 50.3125 -6.453125 C 48.820312 -5.015625 47.398438 -3.804688 46.046875 -2.828125 C 44.703125 -1.859375 42.910156 -1 40.671875 -0.25 C 38.441406 0.488281 35.78125 0.859375 32.6875 0.859375 Z M 32.6875 0.859375 "/></g></g></g><g clip-path="url(#id1)"><path fill="#000000" d="M 186.699219 235.054688 C 183.480469 235.054688 181.9375 233.464844 179.820312 231.269531 L 179.765625 231.21875 C 177.230469 228.605469 174.089844 225.371094 167.992188 225.371094 C 161.84375 225.371094 158.703125 228.632812 156.167969 231.269531 C 154.046875 233.464844 152.503906 235.054688 149.285156 235.054688 C 146.066406 235.054688 144.523438 233.464844 142.40625 231.269531 L 142.328125 231.191406 C 139.816406 228.605469 136.703125 225.394531 130.65625 225.394531 C 124.507812 225.394531 121.371094 228.660156 118.859375 231.269531 L 118.832031 231.296875 C 116.710938 233.488281 115.167969 235.082031 111.949219 235.082031 C 108.734375 235.082031 107.1875 233.488281 105.070312 231.296875 L 104.992188 231.21875 C 102.480469 228.632812 99.339844 225.394531 93.242188 225.394531 C 87.09375 225.394531 83.957031 228.660156 81.445312 231.269531 L 81.417969 231.296875 C 79.296875 233.488281 77.753906 235.082031 74.535156 235.082031 C 71.320312 235.082031 69.773438 233.488281 67.65625 231.296875 L 67.601562 231.242188 C 65.066406 228.632812 61.925781 225.394531 55.828125 225.394531 L 54.261719 225.394531 L 54.261719 232.183594 L 55.828125 232.183594 C 59.046875 232.183594 60.589844 233.777344 62.710938 235.96875 L 62.789062 236.046875 C 65.300781 238.632812 68.441406 241.871094 74.535156 241.871094 C 80.683594 241.871094 83.824219 238.605469 86.335938 235.996094 L 86.363281 235.96875 C 88.480469 233.777344 90.027344 232.183594 93.242188 232.183594 C 96.460938 232.183594 98.003906 233.777344 100.125 235.96875 L 100.175781 236.023438 C 102.714844 238.632812 105.855469 241.871094 111.949219 241.871094 C 118.097656 241.871094 121.238281 238.605469 123.75 235.996094 L 123.777344 235.96875 C 125.894531 233.777344 127.441406 232.183594 130.65625 232.183594 C 133.902344 232.183594 135.417969 233.777344 137.511719 235.96875 C 140.023438 238.578125 143.164062 241.84375 149.3125 241.84375 C 155.460938 241.84375 158.601562 238.578125 161.113281 235.96875 L 161.136719 235.941406 C 163.257812 233.75 164.800781 232.15625 168.019531 232.15625 C 171.238281 232.15625 172.78125 233.75 174.898438 235.941406 L 174.953125 235.996094 C 177.492188 238.605469 180.628906 241.84375 186.699219 241.84375 L 188.269531 241.84375 L 188.269531 235.054688 Z M 186.699219 235.054688 " fill-opacity="1" fill-rule="nonzero"/></g><g clip-path="url(#id2)"><path fill="#004aad" d="M 186.699219 251.605469 C 183.480469 251.605469 181.9375 250.011719 179.820312 247.820312 L 179.765625 247.765625 C 177.230469 245.15625 174.089844 241.917969 167.992188 241.917969 C 161.84375 241.917969 158.703125 245.183594 156.167969 247.820312 C 154.046875 250.011719 152.503906 251.605469 149.285156 251.605469 C 146.066406 251.605469 144.523438 250.011719 142.40625 247.820312 L 142.328125 247.742188 C 139.816406 245.15625 136.703125 241.945312 130.65625 241.945312 C 124.507812 241.945312 121.371094 245.207031 118.859375 247.820312 L 118.832031 247.84375 C 116.710938 250.039062 115.167969 251.632812 111.949219 251.632812 C 108.734375 251.632812 107.1875 250.039062 105.070312 247.84375 L 104.992188 247.765625 C 102.480469 245.183594 99.339844 241.945312 93.242188 241.945312 C 87.09375 241.945312 83.957031 245.207031 81.445312 247.820312 L 81.417969 247.84375 C 79.296875 250.039062 77.753906 251.632812 74.535156 251.632812 C 71.320312 251.632812 69.773438 250.039062 67.65625 247.84375 L 67.601562 247.792969 C 65.066406 245.183594 61.925781 241.945312 55.828125 241.945312 L 54.261719 241.945312 L 54.261719 248.734375 L 55.828125 248.734375 C 59.046875 248.734375 60.589844 250.324219 62.710938 252.519531 L 62.789062 252.597656 C 65.300781 255.183594 68.441406 258.417969 74.535156 258.417969 C 80.683594 258.417969 83.824219 255.15625 86.335938 252.546875 L 86.363281 252.519531 C 88.480469 250.324219 90.027344 248.734375 93.242188 248.734375 C 96.460938 248.734375 98.003906 250.324219 100.125 252.519531 L 100.175781 252.570312 C 102.714844 255.183594 105.855469 258.417969 111.949219 258.417969 C 118.097656 258.417969 121.238281 255.15625 123.75 252.546875 L 123.777344 252.519531 C 125.894531 250.324219 127.441406 248.734375 130.65625 248.734375 C 133.902344 248.734375 135.417969 250.324219 137.511719 252.519531 C 140.023438 255.128906 143.164062 258.394531 149.3125 258.394531 C 155.460938 258.394531 158.601562 255.128906 161.113281 252.519531 L 161.136719 252.492188 C 163.257812 250.300781 164.800781 248.707031 168.019531 248.707031 C 171.238281 248.707031 172.78125 250.300781 174.898438 252.492188 L 174.953125 252.546875 C 177.492188 255.15625 180.628906 258.394531 186.699219 258.394531 L 188.269531 258.394531 L 188.269531 251.605469 Z M 186.699219 251.605469 " fill-opacity="1" fill-rule="nonzero"/></g><g clip-path="url(#id3)"><path fill="#000000" d="M 186.699219 269.261719 C 183.480469 269.261719 181.9375 267.667969 179.820312 265.476562 L 179.765625 265.425781 C 177.230469 262.8125 174.089844 259.578125 167.992188 259.578125 C 161.84375 259.578125 158.703125 262.839844 156.167969 265.476562 C 154.046875 267.667969 152.503906 269.261719 149.285156 269.261719 C 146.066406 269.261719 144.523438 267.667969 142.40625 265.476562 L 142.328125 265.398438 C 139.816406 262.8125 136.703125 259.601562 130.65625 259.601562 C 124.507812 259.601562 121.371094 262.867188 118.859375 265.476562 L 118.832031 265.503906 C 116.710938 267.695312 115.167969 269.289062 111.949219 269.289062 C 108.734375 269.289062 107.1875 267.695312 105.070312 265.503906 L 104.992188 265.425781 C 102.480469 262.839844 99.339844 259.601562 93.242188 259.601562 C 87.09375 259.601562 83.957031 262.867188 81.445312 265.476562 L 81.417969 265.503906 C 79.296875 267.695312 77.753906 269.289062 74.535156 269.289062 C 71.320312 269.289062 69.773438 267.695312 67.65625 265.503906 L 67.601562 265.449219 C 65.066406 262.839844 61.925781 259.601562 55.828125 259.601562 L 54.261719 259.601562 L 54.261719 266.390625 L 55.828125 266.390625 C 59.046875 266.390625 60.589844 267.984375 62.710938 270.175781 L 62.789062 270.253906 C 65.300781 272.839844 68.441406 276.078125 74.535156 276.078125 C 80.683594 276.078125 83.824219 272.8125 86.335938 270.203125 L 86.363281 270.175781 C 88.480469 267.984375 90.027344 266.390625 93.242188 266.390625 C 96.460938 266.390625 98.003906 267.984375 100.125 270.175781 L 100.175781 270.226562 C 102.714844 272.839844 105.855469 276.078125 111.949219 276.078125 C 118.097656 276.078125 121.238281 272.8125 123.75 270.203125 L 123.777344 270.175781 C 125.894531 267.984375 127.441406 266.390625 130.65625 266.390625 C 133.902344 266.390625 135.417969 267.984375 137.511719 270.175781 C 140.023438 272.785156 143.164062 276.050781 149.3125 276.050781 C 155.460938 276.050781 158.601562 272.785156 161.113281 270.175781 L 161.136719 270.148438 C 163.257812 267.957031 164.800781 266.363281 168.019531 266.363281 C 171.238281 266.363281 172.78125 267.957031 174.898438 270.148438 L 174.953125 270.203125 C 177.492188 272.8125 180.628906 276.050781 186.699219 276.050781 L 188.269531 276.050781 L 188.269531 269.261719 Z M 186.699219 269.261719 " fill-opacity="1" fill-rule="nonzero"/></g><g clip-path="url(#id4)"><path fill="#004aad" d="M 186.699219 284.859375 C 183.480469 284.859375 181.9375 283.265625 179.820312 281.074219 L 179.765625 281.023438 C 177.230469 278.410156 174.089844 275.175781 167.992188 275.175781 C 161.84375 275.175781 158.703125 278.4375 156.167969 281.074219 C 154.046875 283.269531 152.503906 284.859375 149.285156 284.859375 C 146.066406 284.859375 144.523438 283.269531 142.40625 281.074219 L 142.328125 280.996094 C 139.816406 278.410156 136.703125 275.199219 130.65625 275.199219 C 124.507812 275.199219 121.371094 278.464844 118.859375 281.074219 L 118.832031 281.101562 C 116.710938 283.292969 115.167969 284.886719 111.949219 284.886719 C 108.734375 284.886719 107.1875 283.292969 105.070312 281.101562 L 104.992188 281.023438 C 102.480469 278.4375 99.339844 275.199219 93.242188 275.199219 C 87.09375 275.199219 83.957031 278.464844 81.445312 281.074219 L 81.417969 281.101562 C 79.296875 283.292969 77.753906 284.886719 74.535156 284.886719 C 71.320312 284.886719 69.773438 283.292969 67.65625 281.101562 L 67.601562 281.046875 C 65.066406 278.4375 61.925781 275.199219 55.828125 275.199219 L 54.261719 275.199219 L 54.261719 281.988281 L 55.828125 281.988281 C 59.046875 281.988281 60.589844 283.582031 62.710938 285.773438 L 62.789062 285.851562 C 65.300781 288.4375 68.441406 291.675781 74.535156 291.675781 C 80.683594 291.675781 83.824219 288.410156 86.335938 285.800781 L 86.363281 285.773438 C 88.480469 283.582031 90.027344 281.988281 93.242188 281.988281 C 96.460938 281.988281 98.003906 283.582031 100.125 285.773438 L 100.175781 285.824219 C 102.714844 288.4375 105.855469 291.675781 111.949219 291.675781 C 118.097656 291.675781 121.238281 288.410156 123.75 285.800781 L 123.777344 285.773438 C 125.894531 283.582031 127.441406 281.988281 130.65625 281.988281 C 133.902344 281.988281 135.417969 283.582031 137.511719 285.773438 C 140.023438 288.382812 143.164062 291.648438 149.3125 291.648438 C 155.460938 291.648438 158.601562 288.382812 161.113281 285.773438 L 161.136719 285.746094 C 163.257812 283.554688 164.800781 281.960938 168.019531 281.960938 C 171.238281 281.960938 172.78125 283.554688 174.898438 285.746094 L 174.953125 285.800781 C 177.492188 288.410156 180.628906 291.648438 186.699219 291.648438 L 188.269531 291.648438 L 188.269531 284.859375 Z M 186.699219 284.859375 " fill-opacity="1" fill-rule="nonzero"/></g><g fill="#ff6100" fill-opacity="1"><g transform="translate(195.930066, 249.969593)"><g><path d="M 6.21875 -9.53125 L 7.125 -9.53125 C 8.144531 -9.53125 8.941406 -9.75 9.515625 -10.1875 C 10.085938 -10.632812 10.375 -11.316406 10.375 -12.234375 C 10.375 -12.878906 10.1875 -13.359375 9.8125 -13.671875 C 9.445312 -13.992188 8.863281 -14.15625 8.0625 -14.15625 L 7.203125 -14.15625 Z M 5.59375 -6.578125 L 4.203125 0 L 0.625 0 L 4.25 -17.140625 L 8.453125 -17.140625 C 10.304688 -17.140625 11.695312 -16.738281 12.625 -15.9375 C 13.550781 -15.144531 14.015625 -13.976562 14.015625 -12.4375 C 14.015625 -11.195312 13.691406 -10.132812 13.046875 -9.25 C 12.398438 -8.363281 11.46875 -7.707031 10.25 -7.28125 L 13.296875 0 L 9.40625 0 L 6.984375 -6.578125 Z M 5.59375 -6.578125 "/></g></g><g transform="translate(210.543346, 249.969593)"><g><path d="M 9.4375 -8.15625 C 9.4375 -9.695312 8.878906 -10.46875 7.765625 -10.46875 C 7.171875 -10.46875 6.640625 -10.226562 6.171875 -9.75 C 5.710938 -9.269531 5.335938 -8.566406 5.046875 -7.640625 C 4.753906 -6.722656 4.609375 -5.78125 4.609375 -4.8125 C 4.609375 -3.363281 5.191406 -2.640625 6.359375 -2.640625 C 6.953125 -2.640625 7.484375 -2.878906 7.953125 -3.359375 C 8.421875 -3.835938 8.785156 -4.503906 9.046875 -5.359375 C 9.304688 -6.210938 9.4375 -7.144531 9.4375 -8.15625 Z M 12.984375 -8.15625 C 12.984375 -6.507812 12.707031 -5.046875 12.15625 -3.765625 C 11.601562 -2.492188 10.804688 -1.507812 9.765625 -0.8125 C 8.734375 -0.113281 7.503906 0.234375 6.078125 0.234375 C 4.546875 0.234375 3.328125 -0.222656 2.421875 -1.140625 C 1.515625 -2.054688 1.0625 -3.28125 1.0625 -4.8125 C 1.0625 -6.46875 1.335938 -7.945312 1.890625 -9.25 C 2.453125 -10.550781 3.257812 -11.554688 4.3125 -12.265625 C 5.363281 -12.984375 6.597656 -13.34375 8.015625 -13.34375 C 9.546875 -13.34375 10.753906 -12.878906 11.640625 -11.953125 C 12.535156 -11.035156 12.984375 -9.769531 12.984375 -8.15625 Z M 12.984375 -8.15625 "/></g></g><g transform="translate(224.582408, 249.969593)"><g><path d="M 6.03125 -2.609375 C 6.53125 -2.609375 7.160156 -2.75 7.921875 -3.03125 L 7.921875 -0.390625 C 7.054688 0.0234375 6.019531 0.234375 4.8125 0.234375 C 3.632812 0.234375 2.769531 -0.0078125 2.21875 -0.5 C 1.664062 -1 1.390625 -1.765625 1.390625 -2.796875 C 1.390625 -3.179688 1.4375 -3.617188 1.53125 -4.109375 L 2.890625 -10.421875 L 1.109375 -10.421875 L 1.4375 -12.140625 L 3.734375 -13.125 L 5.28125 -15.890625 L 7.5625 -15.890625 L 6.984375 -13.109375 L 10.296875 -13.109375 L 9.71875 -10.421875 L 6.40625 -10.421875 L 5.0625 -4.109375 C 5.019531 -3.867188 5 -3.660156 5 -3.484375 C 5 -2.898438 5.34375 -2.609375 6.03125 -2.609375 Z M 6.03125 -2.609375 "/></g></g><g transform="translate(234.426157, 249.969593)"><g><path d="M 6.03125 -2.609375 C 6.53125 -2.609375 7.160156 -2.75 7.921875 -3.03125 L 7.921875 -0.390625 C 7.054688 0.0234375 6.019531 0.234375 4.8125 0.234375 C 3.632812 0.234375 2.769531 -0.0078125 2.21875 -0.5 C 1.664062 -1 1.390625 -1.765625 1.390625 -2.796875 C 1.390625 -3.179688 1.4375 -3.617188 1.53125 -4.109375 L 2.890625 -10.421875 L 1.109375 -10.421875 L 1.4375 -12.140625 L 3.734375 -13.125 L 5.28125 -15.890625 L 7.5625 -15.890625 L 6.984375 -13.109375 L 10.296875 -13.109375 L 9.71875 -10.421875 L 6.40625 -10.421875 L 5.0625 -4.109375 C 5.019531 -3.867188 5 -3.660156 5 -3.484375 C 5 -2.898438 5.34375 -2.609375 6.03125 -2.609375 Z M 6.03125 -2.609375 "/></g></g><g transform="translate(244.269907, 249.969593)"><g><path d="M 8.15625 -10.8125 C 7.46875 -10.8125 6.816406 -10.5 6.203125 -9.875 C 5.597656 -9.25 5.203125 -8.484375 5.015625 -7.578125 L 5.546875 -7.578125 C 6.753906 -7.578125 7.695312 -7.765625 8.375 -8.140625 C 9.050781 -8.523438 9.390625 -9.039062 9.390625 -9.6875 C 9.390625 -10.4375 8.976562 -10.8125 8.15625 -10.8125 Z M 6.234375 0.234375 C 4.597656 0.234375 3.328125 -0.207031 2.421875 -1.09375 C 1.515625 -1.976562 1.0625 -3.222656 1.0625 -4.828125 C 1.0625 -6.441406 1.378906 -7.914062 2.015625 -9.25 C 2.660156 -10.582031 3.535156 -11.597656 4.640625 -12.296875 C 5.742188 -12.992188 6.988281 -13.34375 8.375 -13.34375 C 9.757812 -13.34375 10.835938 -13.023438 11.609375 -12.390625 C 12.390625 -11.753906 12.78125 -10.882812 12.78125 -9.78125 C 12.78125 -8.3125 12.125 -7.179688 10.8125 -6.390625 C 9.507812 -5.597656 7.648438 -5.203125 5.234375 -5.203125 L 4.625 -5.203125 L 4.609375 -4.953125 L 4.609375 -4.71875 C 4.609375 -4.007812 4.804688 -3.445312 5.203125 -3.03125 C 5.609375 -2.625 6.1875 -2.421875 6.9375 -2.421875 C 7.613281 -2.421875 8.226562 -2.492188 8.78125 -2.640625 C 9.34375 -2.796875 10.019531 -3.0625 10.8125 -3.4375 L 10.8125 -0.78125 C 9.46875 -0.101562 7.941406 0.234375 6.234375 0.234375 Z M 6.234375 0.234375 "/></g></g><g transform="translate(257.641, 249.969593)"><g><path d="M 9.875 -13.34375 C 10.332031 -13.34375 10.707031 -13.300781 11 -13.21875 L 10.21875 -9.828125 C 9.863281 -9.953125 9.472656 -10.015625 9.046875 -10.015625 C 8.140625 -10.015625 7.34375 -9.65625 6.65625 -8.9375 C 5.976562 -8.21875 5.492188 -7.191406 5.203125 -5.859375 L 3.96875 0 L 0.4375 0 L 3.21875 -13.109375 L 5.90625 -13.109375 L 5.65625 -10.671875 L 5.734375 -10.671875 C 6.878906 -12.453125 8.257812 -13.34375 9.875 -13.34375 Z M 9.875 -13.34375 "/></g></g><g transform="translate(267.742561, 249.969593)"><g><path d="M 4.765625 0.234375 C 3.609375 0.234375 2.703125 -0.179688 2.046875 -1.015625 C 1.390625 -1.859375 1.0625 -3.03125 1.0625 -4.53125 C 1.0625 -6.0625 1.335938 -7.523438 1.890625 -8.921875 C 2.453125 -10.316406 3.1875 -11.398438 4.09375 -12.171875 C 5.007812 -12.953125 6.019531 -13.34375 7.125 -13.34375 C 7.769531 -13.34375 8.320312 -13.195312 8.78125 -12.90625 C 9.25 -12.625 9.691406 -12.128906 10.109375 -11.421875 L 10.203125 -11.421875 L 10.21875 -11.75 C 10.269531 -12.613281 10.367188 -13.378906 10.515625 -14.046875 L 11.40625 -18.234375 L 14.9375 -18.234375 L 11.0625 0 L 8.375 0 L 8.546875 -1.703125 L 8.5 -1.703125 C 7.945312 -1.023438 7.363281 -0.53125 6.75 -0.21875 C 6.144531 0.0820312 5.484375 0.234375 4.765625 0.234375 Z M 6.234375 -2.609375 C 6.753906 -2.609375 7.253906 -2.875 7.734375 -3.40625 C 8.222656 -3.945312 8.613281 -4.660156 8.90625 -5.546875 C 9.207031 -6.441406 9.359375 -7.398438 9.359375 -8.421875 C 9.359375 -9.046875 9.210938 -9.546875 8.921875 -9.921875 C 8.628906 -10.296875 8.226562 -10.484375 7.71875 -10.484375 C 7.1875 -10.484375 6.679688 -10.203125 6.203125 -9.640625 C 5.722656 -9.078125 5.335938 -8.332031 5.046875 -7.40625 C 4.765625 -6.488281 4.625 -5.578125 4.625 -4.671875 C 4.625 -3.296875 5.160156 -2.609375 6.234375 -2.609375 Z M 6.234375 -2.609375 "/></g></g><g transform="translate(282.004279, 249.969593)"><g><path d="M 4.765625 0.234375 C 3.609375 0.234375 2.703125 -0.179688 2.046875 -1.015625 C 1.390625 -1.847656 1.0625 -3.015625 1.0625 -4.515625 C 1.0625 -6.054688 1.34375 -7.53125 1.90625 -8.9375 C 2.46875 -10.34375 3.203125 -11.425781 4.109375 -12.1875 C 5.023438 -12.957031 6.03125 -13.34375 7.125 -13.34375 C 7.882812 -13.34375 8.539062 -13.175781 9.09375 -12.84375 C 9.644531 -12.519531 10.070312 -12.046875 10.375 -11.421875 L 10.46875 -11.421875 L 11.140625 -13.109375 L 13.859375 -13.109375 L 11.0625 0 L 8.375 0 L 8.546875 -1.703125 L 8.5 -1.703125 C 7.445312 -0.410156 6.203125 0.234375 4.765625 0.234375 Z M 6.140625 -2.609375 C 6.679688 -2.609375 7.203125 -2.867188 7.703125 -3.390625 C 8.203125 -3.921875 8.601562 -4.632812 8.90625 -5.53125 C 9.207031 -6.425781 9.359375 -7.4375 9.359375 -8.5625 C 9.359375 -9.125 9.207031 -9.582031 8.90625 -9.9375 C 8.613281 -10.300781 8.21875 -10.484375 7.71875 -10.484375 C 7.1875 -10.484375 6.679688 -10.203125 6.203125 -9.640625 C 5.722656 -9.078125 5.335938 -8.332031 5.046875 -7.40625 C 4.765625 -6.488281 4.625 -5.578125 4.625 -4.671875 C 4.625 -3.984375 4.753906 -3.46875 5.015625 -3.125 C 5.285156 -2.78125 5.660156 -2.609375 6.140625 -2.609375 Z M 6.140625 -2.609375 "/></g></g><g transform="translate(296.265997, 249.969593)"><g><path d="M 9.890625 -13.34375 C 11.597656 -13.34375 12.625 -12.453125 12.96875 -10.671875 L 13.03125 -10.671875 C 13.5625 -11.535156 14.1875 -12.195312 14.90625 -12.65625 C 15.632812 -13.113281 16.410156 -13.34375 17.234375 -13.34375 C 18.296875 -13.34375 19.101562 -13.007812 19.65625 -12.34375 C 20.21875 -11.6875 20.5 -10.765625 20.5 -9.578125 C 20.5 -8.984375 20.410156 -8.28125 20.234375 -7.46875 L 18.671875 0 L 15.140625 0 L 16.765625 -7.65625 C 16.890625 -8.1875 16.953125 -8.648438 16.953125 -9.046875 C 16.953125 -10.003906 16.566406 -10.484375 15.796875 -10.484375 C 15.078125 -10.484375 14.425781 -10.046875 13.84375 -9.171875 C 13.257812 -8.296875 12.796875 -7.054688 12.453125 -5.453125 L 11.328125 0 L 7.8125 0 L 9.40625 -7.65625 C 9.53125 -8.1875 9.59375 -8.648438 9.59375 -9.046875 C 9.59375 -10.003906 9.210938 -10.484375 8.453125 -10.484375 C 7.734375 -10.484375 7.078125 -10.035156 6.484375 -9.140625 C 5.898438 -8.253906 5.441406 -7.015625 5.109375 -5.421875 L 3.96875 0 L 0.4375 0 L 3.21875 -13.109375 L 5.90625 -13.109375 L 5.65625 -10.671875 L 5.734375 -10.671875 C 6.867188 -12.453125 8.253906 -13.34375 9.890625 -13.34375 Z M 9.890625 -13.34375 "/></g></g></g><g clip-path="url(#id5)"><path fill="#000000" d="M 189.1875 269.261719 C 192.40625 269.261719 193.949219 267.667969 196.066406 265.476562 L 196.121094 265.425781 C 198.660156 262.8125 201.796875 259.578125 207.894531 259.578125 C 214.042969 259.578125 217.183594 262.839844 219.71875 265.476562 C 221.839844 267.667969 223.382812 269.261719 226.601562 269.261719 C 229.820312 269.261719 231.363281 267.667969 233.480469 265.476562 L 233.5625 265.398438 C 236.070312 262.8125 239.1875 259.601562 245.230469 259.601562 C 251.378906 259.601562 254.519531 262.867188 257.027344 265.476562 L 257.054688 265.503906 C 259.175781 267.695312 260.71875 269.289062 263.9375 269.289062 C 267.15625 269.289062 268.699219 267.695312 270.816406 265.503906 L 270.894531 265.425781 C 273.40625 262.839844 276.546875 259.601562 282.644531 259.601562 C 288.792969 259.601562 291.929688 262.867188 294.441406 265.476562 L 294.46875 265.503906 C 296.589844 267.695312 298.132812 269.289062 301.351562 269.289062 C 304.570312 269.289062 306.113281 267.695312 308.230469 265.503906 L 308.285156 265.449219 C 310.820312 262.839844 313.960938 259.601562 320.058594 259.601562 L 321.628906 259.601562 L 321.628906 266.390625 L 320.058594 266.390625 C 316.839844 266.390625 315.296875 267.984375 313.175781 270.175781 L 313.097656 270.253906 C 310.585938 272.839844 307.445312 276.078125 301.351562 276.078125 C 295.203125 276.078125 292.0625 272.8125 289.550781 270.203125 L 289.523438 270.175781 C 287.40625 267.984375 285.863281 266.390625 282.644531 266.390625 C 279.425781 266.390625 277.882812 267.984375 275.761719 270.175781 L 275.710938 270.226562 C 273.171875 272.839844 270.03125 276.078125 263.9375 276.078125 C 257.789062 276.078125 254.648438 272.8125 252.136719 270.203125 L 252.109375 270.175781 C 249.992188 267.984375 248.449219 266.390625 245.230469 266.390625 C 241.984375 266.390625 240.46875 267.984375 238.375 270.175781 C 235.863281 272.785156 232.722656 276.050781 226.574219 276.050781 C 220.425781 276.050781 217.285156 272.785156 214.773438 270.175781 L 214.75 270.148438 C 212.628906 267.957031 211.085938 266.363281 207.867188 266.363281 C 204.648438 266.363281 203.105469 267.957031 200.988281 270.148438 L 200.933594 270.203125 C 198.398438 272.8125 195.257812 276.050781 189.1875 276.050781 L 187.617188 276.050781 L 187.617188 269.261719 Z M 189.1875 269.261719 " fill-opacity="1" fill-rule="nonzero"/></g><g clip-path="url(#id6)"><path fill="#004aad" d="M 189.1875 284.859375 C 192.40625 284.859375 193.949219 283.265625 196.066406 281.074219 L 196.121094 281.023438 C 198.660156 278.410156 201.796875 275.175781 207.894531 275.175781 C 214.042969 275.175781 217.183594 278.4375 219.71875 281.074219 C 221.839844 283.269531 223.382812 284.859375 226.601562 284.859375 C 229.820312 284.859375 231.363281 283.269531 233.480469 281.074219 L 233.5625 280.996094 C 236.070312 278.410156 239.1875 275.199219 245.230469 275.199219 C 251.378906 275.199219 254.519531 278.464844 257.027344 281.074219 L 257.054688 281.101562 C 259.175781 283.292969 260.71875 284.886719 263.9375 284.886719 C 267.15625 284.886719 268.699219 283.292969 270.816406 281.101562 L 270.894531 281.023438 C 273.40625 278.4375 276.546875 275.199219 282.644531 275.199219 C 288.792969 275.199219 291.929688 278.464844 294.441406 281.074219 L 294.46875 281.101562 C 296.589844 283.292969 298.132812 284.886719 301.351562 284.886719 C 304.570312 284.886719 306.113281 283.292969 308.230469 281.101562 L 308.285156 281.046875 C 310.820312 278.4375 313.960938 275.199219 320.058594 275.199219 L 321.628906 275.199219 L 321.628906 281.988281 L 320.058594 281.988281 C 316.839844 281.988281 315.296875 283.582031 313.175781 285.773438 L 313.097656 285.851562 C 310.585938 288.4375 307.445312 291.675781 301.351562 291.675781 C 295.203125 291.675781 292.0625 288.410156 289.550781 285.800781 L 289.523438 285.773438 C 287.40625 283.582031 285.863281 281.988281 282.644531 281.988281 C 279.425781 281.988281 277.882812 283.582031 275.761719 285.773438 L 275.710938 285.824219 C 273.171875 288.4375 270.03125 291.675781 263.9375 291.675781 C 257.789062 291.675781 254.648438 288.410156 252.136719 285.800781 L 252.109375 285.773438 C 249.992188 283.582031 248.449219 281.988281 245.230469 281.988281 C 241.984375 281.988281 240.46875 283.582031 238.375 285.773438 C 235.863281 288.382812 232.722656 291.648438 226.574219 291.648438 C 220.425781 291.648438 217.285156 288.382812 214.773438 285.773438 L 214.75 285.746094 C 212.628906 283.554688 211.085938 281.960938 207.867188 281.960938 C 204.648438 281.960938 203.105469 283.554688 200.988281 285.746094 L 200.933594 285.800781 C 198.398438 288.410156 195.257812 291.648438 189.1875 291.648438 L 187.617188 291.648438 L 187.617188 284.859375 Z M 189.1875 284.859375 " fill-opacity="1" fill-rule="nonzero"/></g><path fill="#004aad" d="M 132.867188 114.332031 C 132.285156 115.527344 131.167969 116.390625 129.671875 115.804688 C 128.230469 115.832031 116.628906 109.136719 111.566406 107.015625 C 98.980469 101.742188 90.144531 115.703125 105.574219 116.359375 C 111.203125 116.597656 126.503906 119.265625 127.3125 119.808594 C 128.144531 120.375 129.796875 121.195312 128.792969 122.292969 C 126.695312 124.582031 127.550781 126.078125 124.496094 127.648438 C 114.921875 132.5625 124.074219 130.988281 126.6875 131.28125 C 128.417969 131.480469 127.117188 135.445312 125.90625 136.261719 C 117.628906 141.84375 107.703125 144.507812 128.628906 140.03125 C 128.945312 139.820312 132.402344 140.085938 133.253906 141.25 C 134.109375 142.421875 133.882812 143.75 133.894531 144.101562 C 133.945312 145.191406 122.648438 156.425781 116.316406 166.355469 C 108.835938 178.085938 118.851562 187.148438 129.171875 173.394531 C 132.929688 168.386719 132.378906 154.574219 138.984375 148.226562 C 144.691406 142.742188 148.460938 161.128906 153.042969 155.089844 C 154.011719 153.816406 152.632812 149.382812 153.277344 147.882812 C 155.503906 142.695312 163.953125 149.882812 165.261719 148.65625 C 166.257812 147.726562 162.546875 142.773438 162.992188 139.972656 C 164.472656 130.667969 191.550781 150.820312 195.160156 151.382812 C 200.140625 152.15625 206.886719 148.007812 202.085938 143.75 C 195.011719 137.480469 173.476562 133.824219 171.59375 132.546875 C 168.644531 132.101562 166.558594 130.164062 169.472656 128.898438 C 172.375 127.636719 174.207031 127.769531 175.492188 127.101562 C 178.3125 125.621094 177.742188 124.28125 174.925781 124.003906 C 173.5625 123.878906 171.007812 123.207031 169.085938 123.140625 C 168.257812 123.117188 162.867188 121.222656 163.238281 118.53125 C 163.609375 115.804688 172.566406 108.125 180.507812 104.480469 C 194.0625 98.261719 191.203125 80.597656 173.625 94.210938 C 171.496094 95.855469 163.535156 110.039062 161.457031 111.726562 C 159.386719 113.40625 153.582031 115.203125 150.980469 111.382812 C 149.683594 109.488281 156.335938 102.585938 156.609375 101.4375 C 158.402344 93.851562 150.542969 91.152344 146.398438 99.011719 C 145.507812 100.71875 145.3125 106.828125 143.78125 109.855469 C 142.929688 111.550781 140.632812 111.480469 140.042969 111.054688 C 138.261719 109.75 133.246094 104.246094 132.574219 104.703125 C 131.449219 105.457031 133.707031 112.609375 132.867188 114.332031 " fill-opacity="1" fill-rule="evenodd"/><path fill="#004aad" d="M 161.964844 153.953125 C 159.613281 158.246094 159.179688 163.570312 159.75 167.957031 C 161.566406 182.035156 177.382812 176.605469 169.941406 164.875 C 166.0625 158.746094 161.203125 151.800781 161.964844 153.953125 " fill-opacity="1" fill-rule="evenodd"/><path fill="#004aad" d="M 168.816406 117.640625 C 172.964844 118.765625 177.859375 118.46875 181.808594 117.601562 C 194.484375 114.820312 188.039062 104.695312 178.03125 111.03125 C 172.804688 114.335938 166.925781 118.390625 168.816406 117.640625 " fill-opacity="1" fill-rule="evenodd"/><path fill="#004aad" d="M 129.453125 143.546875 C 125.300781 143.558594 120.960938 145.027344 117.675781 146.78125 C 107.152344 152.398438 116.550781 159.902344 123.410156 151.753906 C 126.992188 147.496094 130.910156 142.40625 129.453125 143.546875 " fill-opacity="1" fill-rule="evenodd"/><path fill="#004aad" d="M 114.996094 140.863281 C 111.636719 140.179688 108.390625 140.75 104.9375 140.539062 C 81.636719 139.105469 91.371094 158.214844 104.082031 149.019531 C 110.621094 144.285156 117.425781 139.683594 114.996094 140.863281 " fill-opacity="1" fill-rule="evenodd"/><path fill="#004aad" d="M 124.835938 122.695312 C 122.578125 121.324219 119.5 122.203125 117.015625 121.160156 C 100.242188 114.09375 100.988281 130.71875 113.515625 127.195312 C 119.964844 125.386719 127.023438 122.453125 124.835938 122.695312 " fill-opacity="1" fill-rule="evenodd"/><path fill="#004aad" d="M 166.355469 140.59375 C 168.828125 140.910156 170.273438 143.589844 172.664062 144.316406 C 188.84375 149.21875 176.707031 162.332031 170.78125 151.480469 C 167.726562 145.898438 165.054688 138.996094 166.355469 140.59375 " fill-opacity="1" fill-rule="evenodd"/><path fill="#004aad" d="M 132.132812 103.648438 C 134.097656 99.585938 134.230469 94.648438 133.484375 90.613281 C 131.105469 77.660156 116.753906 83.257812 124.210938 93.835938 C 128.109375 99.359375 132.933594 105.601562 132.132812 103.648438 " fill-opacity="1" fill-rule="evenodd"/><path fill="#004aad" d="M 179.597656 130.761719 C 182.464844 132.808594 186.421875 133.953125 189.832031 134.375 C 200.761719 135.738281 199.195312 125.96875 189.132812 128.148438 C 183.878906 129.28125 177.851562 130.824219 179.597656 130.761719 " fill-opacity="1" fill-rule="evenodd"/><path fill="#004aad" d="M 178.617188 122.324219 C 182.328125 124.21875 187.113281 124.90625 191.128906 124.847656 C 204 124.667969 200.253906 113.65625 189.089844 117.78125 C 183.253906 119.929688 176.617188 122.671875 178.617188 122.324219 " fill-opacity="1" fill-rule="evenodd"/><path fill="#004aad" d="M 159.75 105.445312 C 162.972656 103.988281 165.671875 101.3125 167.410156 98.789062 C 172.996094 90.679688 162.222656 88.023438 160.65625 96.855469 C 159.835938 101.46875 159.144531 106.851562 159.75 105.445312 " fill-opacity="1" fill-rule="evenodd"/><g fill="#ff6100" fill-opacity="1"><g transform="translate(68.062266, 148.26234)"><g><path d="M 15 -19.015625 C 18.019531 -21.265625 20.28125 -23.03125 21.78125 -24.3125 C 23.289062 -25.59375 24.332031 -26.671875 24.90625 -27.546875 C 25.476562 -28.421875 25.765625 -29.296875 25.765625 -30.171875 C 25.765625 -32.578125 24.429688 -33.78125 21.765625 -33.78125 C 20.191406 -33.78125 18.671875 -33.21875 17.203125 -32.09375 C 15.734375 -30.96875 14.390625 -29.359375 13.171875 -27.265625 C 12.984375 -26.878906 12.675781 -26.800781 12.25 -27.03125 L 4.125 -31.546875 C 3.9375 -31.660156 3.84375 -31.816406 3.84375 -32.015625 C 3.84375 -32.390625 4.070312 -32.882812 4.53125 -33.5 C 6.664062 -36.550781 9.316406 -38.90625 12.484375 -40.5625 C 15.648438 -42.226562 19.085938 -43.0625 22.796875 -43.0625 C 26.003906 -43.0625 28.769531 -42.554688 31.09375 -41.546875 C 33.425781 -40.535156 35.210938 -39.113281 36.453125 -37.28125 C 37.691406 -35.445312 38.3125 -33.328125 38.3125 -30.921875 C 38.3125 -28.097656 37.59375 -25.710938 36.15625 -23.765625 C 34.726562 -21.816406 32.429688 -19.832031 29.265625 -17.8125 L 19.1875 -11.34375 C 18.875 -11.144531 18.707031 -10.96875 18.6875 -10.8125 C 18.675781 -10.664062 18.800781 -10.59375 19.0625 -10.59375 L 34.59375 -10.59375 C 35.507812 -10.59375 35.910156 -10.226562 35.796875 -9.5 L 34.640625 -0.921875 C 34.566406 -0.578125 34.441406 -0.335938 34.265625 -0.203125 C 34.097656 -0.0664062 33.785156 0 33.328125 0 L 1.3125 0 C 0.738281 0 0.316406 -0.148438 0.046875 -0.453125 C -0.210938 -0.765625 -0.304688 -1.207031 -0.234375 -1.78125 L 0.578125 -7.4375 C 0.648438 -7.820312 0.882812 -8.222656 1.28125 -8.640625 C 1.6875 -9.066406 2.671875 -9.867188 4.234375 -11.046875 Z M 15 -19.015625 "/></g></g></g><g fill="#ff6100" fill-opacity="1"><g transform="translate(106.590659, 148.26234)"><g/></g></g><g fill="#ff6100" fill-opacity="1"><g transform="translate(118.043502, 148.26234)"><g/></g></g><g fill="#ff6100" fill-opacity="1"><g transform="translate(129.496346, 148.26234)"><g/></g></g><g fill="#ff6100" fill-opacity="1"><g transform="translate(140.94919, 148.26234)"><g/></g></g><g fill="#ff6100" fill-opacity="1"><g transform="translate(152.402034, 148.26234)"><g/></g></g><g fill="#ff6100" fill-opacity="1"><g transform="translate(163.854877, 148.26234)"><g/></g></g><g fill="#ff6100" fill-opacity="1"><g transform="translate(175.307721, 148.26234)"><g/></g></g><g fill="#ff6100" fill-opacity="1"><g transform="translate(186.755575, 148.26234)"><g><path d="M 15 -19.015625 C 18.019531 -21.265625 20.28125 -23.03125 21.78125 -24.3125 C 23.289062 -25.59375 24.332031 -26.671875 24.90625 -27.546875 C 25.476562 -28.421875 25.765625 -29.296875 25.765625 -30.171875 C 25.765625 -32.578125 24.429688 -33.78125 21.765625 -33.78125 C 20.191406 -33.78125 18.671875 -33.21875 17.203125 -32.09375 C 15.734375 -30.96875 14.390625 -29.359375 13.171875 -27.265625 C 12.984375 -26.878906 12.675781 -26.800781 12.25 -27.03125 L 4.125 -31.546875 C 3.9375 -31.660156 3.84375 -31.816406 3.84375 -32.015625 C 3.84375 -32.390625 4.070312 -32.882812 4.53125 -33.5 C 6.664062 -36.550781 9.316406 -38.90625 12.484375 -40.5625 C 15.648438 -42.226562 19.085938 -43.0625 22.796875 -43.0625 C 26.003906 -43.0625 28.769531 -42.554688 31.09375 -41.546875 C 33.425781 -40.535156 35.210938 -39.113281 36.453125 -37.28125 C 37.691406 -35.445312 38.3125 -33.328125 38.3125 -30.921875 C 38.3125 -28.097656 37.59375 -25.710938 36.15625 -23.765625 C 34.726562 -21.816406 32.429688 -19.832031 29.265625 -17.8125 L 19.1875 -11.34375 C 18.875 -11.144531 18.707031 -10.96875 18.6875 -10.8125 C 18.675781 -10.664062 18.800781 -10.59375 19.0625 -10.59375 L 34.59375 -10.59375 C 35.507812 -10.59375 35.910156 -10.226562 35.796875 -9.5 L 34.640625 -0.921875 C 34.566406 -0.578125 34.441406 -0.335938 34.265625 -0.203125 C 34.097656 -0.0664062 33.785156 0 33.328125 0 L 1.3125 0 C 0.738281 0 0.316406 -0.148438 0.046875 -0.453125 C -0.210938 -0.765625 -0.304688 -1.207031 -0.234375 -1.78125 L 0.578125 -7.4375 C 0.648438 -7.820312 0.882812 -8.222656 1.28125 -8.640625 C 1.6875 -9.066406 2.671875 -9.867188 4.234375 -11.046875 Z M 15 -19.015625 "/></g></g></g><g fill="#ff6100" fill-opacity="1"><g transform="translate(225.294409, 148.26234)"><g><path d="M 5.953125 -35.96875 C 5.796875 -36.113281 5.71875 -36.300781 5.71875 -36.53125 C 5.71875 -36.875 5.890625 -37.179688 6.234375 -37.453125 C 8.035156 -39.054688 10.441406 -40.390625 13.453125 -41.453125 C 16.472656 -42.523438 19.53125 -43.0625 22.625 -43.0625 C 27.65625 -43.0625 31.582031 -42.113281 34.40625 -40.21875 C 37.238281 -38.332031 38.65625 -35.785156 38.65625 -32.578125 C 38.65625 -30.328125 37.851562 -28.253906 36.25 -26.359375 C 34.644531 -24.472656 32.734375 -23.207031 30.515625 -22.5625 C 30.253906 -22.488281 30.113281 -22.382812 30.09375 -22.25 C 30.070312 -22.113281 30.175781 -22.007812 30.40625 -21.9375 C 32.539062 -21.320312 34.21875 -20.234375 35.4375 -18.671875 C 36.664062 -17.109375 37.28125 -15.332031 37.28125 -13.34375 C 37.28125 -8.601562 35.457031 -5.097656 31.8125 -2.828125 C 28.164062 -0.554688 23.328125 0.578125 17.296875 0.578125 C 13.359375 0.578125 9.921875 -0.191406 6.984375 -1.734375 C 4.046875 -3.285156 1.945312 -5.285156 0.6875 -7.734375 C 0.5 -8.109375 0.394531 -8.390625 0.375 -8.578125 C 0.351562 -8.773438 0.421875 -8.929688 0.578125 -9.046875 L 7.21875 -13.34375 C 7.476562 -13.5 7.6875 -13.578125 7.84375 -13.578125 C 8.113281 -13.578125 8.304688 -13.476562 8.421875 -13.28125 C 10.023438 -11.488281 11.503906 -10.21875 12.859375 -9.46875 C 14.210938 -8.726562 15.84375 -8.359375 17.75 -8.359375 C 19.65625 -8.359375 21.273438 -8.851562 22.609375 -9.84375 C 23.953125 -10.84375 24.625 -12.085938 24.625 -13.578125 C 24.625 -14.640625 24.144531 -15.515625 23.1875 -16.203125 C 22.238281 -16.890625 20.941406 -17.253906 19.296875 -17.296875 L 13.921875 -17.40625 C 13.421875 -17.40625 13.191406 -17.65625 13.234375 -18.15625 L 14.203125 -25.71875 C 14.242188 -25.90625 14.335938 -26.035156 14.484375 -26.109375 C 14.640625 -26.191406 14.910156 -26.234375 15.296875 -26.234375 L 19.125 -26.34375 C 21 -26.414062 22.601562 -26.957031 23.9375 -27.96875 C 25.269531 -28.976562 25.9375 -30.191406 25.9375 -31.609375 C 25.9375 -32.410156 25.570312 -33.066406 24.84375 -33.578125 C 24.125 -34.097656 23.15625 -34.359375 21.9375 -34.359375 C 20.289062 -34.359375 18.804688 -34.050781 17.484375 -33.4375 C 16.171875 -32.832031 14.503906 -31.765625 12.484375 -30.234375 C 12.210938 -30.046875 12.003906 -29.953125 11.859375 -29.953125 C 11.660156 -29.953125 11.46875 -30.046875 11.28125 -30.234375 Z M 5.953125 -35.96875 "/></g></g></g></svg>